<svg xmlns="http://www.w3.org/2000/svg" width="1058" height="225" viewBox="0 0 1058 225">
   <rect fill="#ffffff" width="1058" height="225" />
   <polygon fill="#fd000b" points="82 205, 82 143, 20 143, 20 82, 82 82, 82 20, 143 20, 143 82, 205 82, 205 143, 143 143, 143 205, 82 205" />
   <path fill="#fd000b" d="m 1023.5729,141.59548 q -1.0147,2.8853 -1.9513,4.99079 -0.9366,2.18347 -1.8732,3.66512 -0.8586,1.55962 -1.7952,2.65135 -0.9366,1.09174 -2.0293,1.87156 -2.0293,1.48164 -4.5269,2.33943 -2.4196,0.93578 -5.1513,1.32568 l -3.5903,-6.86234 q 1.7171,-0.46789 3.5123,-1.16972 1.7951,-0.62386 2.9659,-1.48165 1.639,-1.16971 2.9659,-3.27521 0.3902,-0.62384 0.6244,-1.09173 0.3121,-0.46789 0.5463,-1.01376 0.2341,-0.46789 0.4683,-1.09173 0.2341,-0.62386 0.6244,-1.48165 h -2.6537 q -0.4683,-1.40366 -1.0926,-3.11925 -0.5465,-1.79356 -1.0928,-3.43117 -0.5464,-1.6376 -1.0147,-2.8853 -0.3901,-1.32568 -0.5463,-1.79357 l -9.44411,-28.07323 10.69291,-1.24769 6.9465,23.31637 q 0.2341,0.85779 0.5464,2.18347 0.3902,1.32569 0.7024,2.65136 0.3122,1.2477 0.5463,2.26146 0.2342,0.93578 0.3122,1.16971 0,-0.078 0.078,-0.7798 0.156,-0.77982 0.3122,-1.71559 0.2341,-1.01376 0.4683,-2.10549 0.2341,-1.09174 0.3902,-1.79357 0.2342,-1.01376 0.6245,-2.57338 0.4683,-1.55963 0.9366,-2.96329 l 6.0098,-19.02741 h 11.0051 z m -23.85931,-1.48165 q -4.3708,1.79357 -8.5074,1.79357 -3.9806,0 -6.9465,-1.55962 -2.8879,-1.63761 -3.8245,-4.28897 -0.2341,-0.62385 -0.3903,-1.16971 -0.156,-0.54587 -0.2341,-1.16972 0,-0.62386 -0.078,-1.48165 0,-0.93577 0,-2.33943 v -21.67877 h -3.9806 v -7.17428 h 3.9806 q 0,-2.963285 0,-5.068775 0.078,-2.10548 0.3902,-4.36694 l 10.6149,-2.65136 q -0.3123,2.72934 -0.4683,5.92657 -0.1561,3.11925 -0.1561,6.160505 h 9.3659 l -2.6536,7.17428 h -6.7123 v 20.04116 q 0,3.82108 0.8585,5.14676 0.9366,1.2477 3.66841,1.2477 0.70239,0 1.48289,-0.15596 0.85851,-0.23395 2.26341,-0.62386 z m -38.45846,-23.94022 q 0,-2.26145 -0.31221,-3.58714 -0.23415,-1.32567 -0.9366,-2.41741 -1.56101,-2.33943 -4.60496,-2.33943 -2.96592,0 -4.60497,2.26145 -1.63906,2.18347 -1.63906,6.39446 v 0.15595 h 12.0978 z m -12.25389,8.11004 v 0.31192 q 0,4.67888 2.1854,7.17428 2.18541,2.49539 6.24402,2.49539 5.30739,0 10.14623,-3.97704 l 4.0585,6.23849 q -6.7903,5.53667 -15.06328,5.53667 -4.29276,0 -7.80502,-1.48164 -3.51226,-1.48165 -6.00987,-4.133 -2.41956,-2.72934 -3.74641,-6.55043 -1.32685,-3.82108 -1.32685,-8.49995 0,-5.38069 1.17075,-9.1238 1.17076,-3.74309 3.82446,-6.70638 2.4976,-2.72933 5.54157,-4.05502 3.04396,-1.32568 7.02452,-1.32568 3.51226,0 6.55622,1.09174 3.04361,1.09173 4.99491,3.11925 2.7317,2.80731 3.9805,7.0183 1.3268,4.133 1.3268,10.44948 v 2.41742 z M 932.16859,90.049915 q 0,2.72934 -1.8732,4.60088 -1.8732,1.87155 -4.60496,1.87155 -2.65372,0 -4.52692,-1.87155 -1.87321,-1.87154 -1.87321,-4.60088 0,-2.72935 1.87321,-4.6009 1.95127,-1.87155 4.68301,-1.87155 2.65371,0 4.44886,1.87155 1.87321,1.87155 1.87321,4.6009 z m -11.70753,50.921715 v -39.22454 l 10.45873,-1.63761 v 40.86214 z m -4.33475,-4.5229 q -1.17074,1.1697 -1.87319,1.79355 -0.70245,0.54588 -1.79516,1.16973 -2.10736,1.24769 -4.52691,1.87154 -2.34151,0.62385 -5.22937,0.62385 -8.27332,0 -12.87829,-5.3807 -4.52691,-5.45867 -4.52691,-15.20633 0,-6.94032 2.3415,-11.46323 2.34151,-4.60089 5.85377,-7.01831 2.02931,-1.32568 4.68301,-2.10549 2.73176,-0.857795 5.22938,-0.857795 2.0293,0 4.0586,0.467885 2.02931,0.46788 3.66837,1.32568 1.0927,0.62385 1.79515,1.16972 0.7805,0.54587 2.10735,1.6376 l -5.07326,6.86235 q -1.561,-1.48164 -3.20006,-2.26145 -1.63905,-0.85779 -3.12201,-0.85779 -3.51225,0 -5.15131,3.19722 -1.63905,3.11925 -1.63905,10.21554 0,3.97704 0.46829,6.39445 0.54636,2.33944 1.56101,3.66512 1.79516,2.26146 4.68302,2.26146 3.43421,0 7.18061,-3.27521 l 0.62441,-0.54587 z M 868.88108,120.7745 q 0,-7.95408 -2.10735,-10.68342 -1.63905,-2.10549 -4.52692,-2.10549 -1.8732,0 -3.35616,1.09174 -1.4049,1.09173 -2.0293,2.96328 -0.54635,1.55963 -0.85856,3.7431 -0.23414,2.18347 -0.23414,5.14675 0,6.94033 1.32685,10.05957 0.70245,1.63761 2.1854,2.4954 1.56101,0.77981 3.12201,0.77981 3.43421,0 4.91717,-3.19722 1.561,-3.19723 1.561,-10.29352 z m 11.39535,0.078 q 0,5.14676 -1.24882,8.81187 -1.17075,3.66512 -3.74641,6.6284 -2.26345,2.57339 -5.38545,4.05502 -3.12202,1.48164 -7.80503,1.48164 -4.05862,0 -7.41476,-1.48164 -3.27811,-1.48163 -5.61963,-4.13301 -2.34151,-2.72933 -3.66836,-6.55041 -1.24881,-3.82108 -1.24881,-8.49995 0,-4.67887 1.24881,-8.49995 1.32684,-3.89906 3.66836,-6.6284 2.34151,-2.80733 5.61963,-4.28897 3.35614,-1.48164 7.41476,-1.48164 8.50748,0 13.58074,6.00455 2.41956,2.80733 3.51226,6.2385 1.09271,3.43117 1.09271,8.34399 z m -41.15095,3.04125 q 0,4.13299 -1.63906,7.4862 -1.56101,3.35318 -4.52691,5.7706 -2.88787,2.41742 -7.02453,3.7431 -4.13667,1.24771 -9.20993,1.24771 -4.683,0 -9.52211,-1.24771 -4.83912,-1.32568 -8.97578,-3.66511 l 4.05861,-8.49996 q 3.82446,2.02751 7.25867,3.19723 3.51226,1.16971 7.64893,1.16971 9.52212,0 9.52212,-7.4082 0,-5.06878 -7.10257,-7.01831 l -6.00987,-1.6376 q -4.05861,-1.09174 -6.63427,-2.72935 -2.57566,-1.6376 -4.05861,-4.133 -2.26346,-3.66511 -2.26346,-8.26601 0,-3.743095 1.4049,-6.784365 1.4049,-3.11925 3.98056,-5.30272 2.57566,-2.26146 6.16597,-3.43117 3.5903,-1.2477 7.88307,-1.2477 4.99521,0 9.75628,1.48164 4.76106,1.40366 8.35137,3.97704 l -5.15132,7.79812 q -3.7464,-2.26146 -6.71231,-3.19723 -2.88786,-0.93578 -5.93182,-0.93578 -3.35616,0 -5.46351,1.79358 -2.10736,1.71558 -2.10736,4.444925 0,2.10549 1.24881,3.3532 1.32684,1.16971 4.76106,2.10549 l 6.55621,1.79356 q 6.71232,1.79357 10.22458,5.92657 3.51227,4.13301 3.51228,10.21554 z m -69.8574,4.44493 q 0,3.11924 -1.2488,5.69262 -1.24881,2.4954 -3.51227,4.36695 -2.1854,1.79357 -5.38546,2.80732 -3.12201,1.01376 -6.94647,1.01376 -7.33673,0 -16.1564,-4.60089 l 3.74641,-7.64215 q 1.17076,0.70183 2.73176,1.55962 1.63905,0.7798 3.35616,1.48163 1.79516,0.62386 3.59031,1.09174 1.87321,0.38992 3.59031,0.38992 2.26346,0 3.74642,-1.2477 1.561,-1.32569 1.561,-3.27521 0,-2.02751 -1.48296,-3.11925 -1.48296,-1.16972 -4.68301,-1.79357 l -4.68301,-0.8578 q -2.02931,-0.38989 -4.13667,-1.55962 -2.10735,-1.16972 -3.20006,-2.49539 -1.0927,-1.32569 -1.7171,-3.27521 -0.54635,-1.94953 -0.54635,-3.89907 0,-2.8853 1.0927,-5.30271 1.09271,-2.41742 3.12201,-4.13301 2.0293,-1.71558 4.83912,-2.65136 2.88785,-0.935785 6.40011,-0.935785 4.83912,0 8.19527,1.247705 3.35617,1.16972 6.08792,2.4954 l -3.43421,7.01831 q -2.96591,-1.55963 -5.30741,-2.18347 -2.26346,-0.70183 -4.52691,-0.70183 -2.26347,0 -3.66837,1.09174 -1.4049,1.01375 -1.4049,2.80731 0,1.55963 1.0927,2.4954 1.17075,0.8578 3.90251,1.55963 l 4.83912,1.2477 q 1.8732,0.46788 3.122,1.01375 1.24881,0.46789 2.10736,1.09174 0.93661,0.54586 1.561,1.16972 0.62441,0.54587 1.17076,1.2477 2.18541,2.72934 2.18541,6.78436 z m -36.31647,0 q 0,3.11924 -1.24881,5.69262 -1.2488,2.4954 -3.51225,4.36695 -2.18542,1.79357 -5.38548,2.80732 -3.12201,1.01376 -6.94646,1.01376 -7.33673,0 -16.1564,-4.60089 l 3.74641,-7.64215 q 1.17075,0.70183 2.73176,1.55962 1.63905,0.7798 3.35616,1.48163 1.79515,0.62386 3.59031,1.09174 1.87321,0.38992 3.59032,0.38992 2.26345,0 3.7464,-1.2477 1.561,-1.32569 1.561,-3.27521 0,-2.02751 -1.48294,-3.11925 -1.48296,-1.16972 -4.68302,-1.79357 l -4.68302,-0.8578 q -2.0293,-0.38989 -4.13666,-1.55962 -2.10735,-1.16972 -3.20005,-2.49539 -1.09271,-1.32569 -1.71712,-3.27521 -0.54634,-1.94953 -0.54634,-3.89907 0,-2.8853 1.0927,-5.30271 1.0927,-2.41742 3.12201,-4.13301 2.02931,-1.71558 4.83911,-2.65136 2.88786,-0.935785 6.40012,-0.935785 4.83911,0 8.19528,1.247705 3.35615,1.16972 6.08791,2.4954 l -3.43421,7.01831 q -2.9659,-1.55963 -5.30742,-2.18347 -2.26345,-0.70183 -4.52691,-0.70183 -2.26345,0 -3.66835,1.09174 -1.40491,1.01375 -1.40491,2.80731 0,1.55963 1.0927,2.4954 1.17076,0.8578 3.90252,1.55963 l 4.83911,1.2477 q 1.87321,0.46788 3.12201,1.01375 1.2488,0.46789 2.10735,1.09174 0.93661,0.54586 1.56101,1.16972 0.6244,0.54587 1.17075,1.2477 2.18541,2.72934 2.18541,6.78436 z M 685.2318,120.7745 q 0,-7.95408 -2.10735,-10.68342 -1.63906,-2.10549 -4.52692,-2.10549 -1.8732,0 -3.35617,1.09174 -1.4049,1.09173 -2.02931,2.96328 -0.54635,1.55963 -0.85855,3.7431 -0.23415,2.18347 -0.23415,5.14675 0,6.94033 1.32686,10.05957 0.70245,1.63761 2.1854,2.4954 1.561,0.77981 3.12201,0.77981 3.43421,0 4.91717,-3.19722 1.56101,-3.19723 1.56101,-10.29352 z m 11.39532,0.078 q 0,5.14676 -1.24879,8.81187 -1.17075,3.66512 -3.74641,6.6284 -2.26346,2.57339 -5.38548,4.05502 -3.12199,1.48164 -7.80502,1.48164 -4.05861,0 -7.41477,-1.48164 -3.2781,-1.48163 -5.61962,-4.13301 -2.34151,-2.72933 -3.66836,-6.55041 -1.2488,-3.82108 -1.2488,-8.49995 0,-4.67887 1.2488,-8.49995 1.32685,-3.89906 3.66836,-6.6284 2.34151,-2.80733 5.61962,-4.28897 3.35617,-1.48164 7.41477,-1.48164 8.50748,0 13.58074,6.00455 2.41955,2.80733 3.51226,6.2385 1.0927,3.43117 1.0927,8.34399 z m -39.4199,-10.68344 q -1.48293,-0.77981 -3.04395,-0.77981 -3.51225,0 -6.40012,3.35319 v 28.22919 h -10.45872 v -26.66958 q 0,-4.05502 -0.4683,-7.01829 -0.39026,-2.96329 -1.01467,-4.67889 l 9.36604,-2.49539 q 1.4049,2.49539 1.63905,5.69263 1.7171,-2.26146 4.05862,-3.97704 2.3415,-1.71559 5.30741,-1.71559 1.17076,0 1.8732,0.15596 0.7805,0.15597 2.02932,0.70184 z m -25.28458,26.66956 q -3.27811,2.65136 -6.86843,3.89906 -3.51225,1.16972 -8.19527,1.16972 -11.16119,0 -17.71741,-7.4862 -6.5562,-7.33021 -6.5562,-19.41732 0,-9.98158 3.66835,-16.843925 3.20007,-5.92657 8.66359,-9.20178 5.46351,-3.3532 12.09777,-3.3532 4.05862,0 7.72696,1.16973 3.74642,1.16971 6.00987,3.11925 l -4.91716,7.40821 q -4.13666,-3.04128 -8.66357,-3.04128 -2.73176,0 -5.22937,1.24771 -2.4976,1.2477 -3.98056,3.43117 -3.04395,4.522905 -3.04395,13.958635 0,5.61464 0.46829,8.96783 0.54635,3.27521 1.79516,5.53667 3.35617,6.08253 10.45873,6.08253 2.41955,0 4.60496,-0.77981 2.26346,-0.77981 4.68301,-2.72934 z m -83.68382,-25.2659 q -2.96592,-2.57338 -5.69767,-2.57338 -3.51227,0 -5.15133,3.04127 -1.561,3.04126 -1.561,9.74765 0,3.19723 0.3122,5.3807 0.39025,2.18348 1.2488,3.50915 0.85856,1.32567 2.26346,1.94953 1.4049,0.54586 3.43421,0.54586 1.48295,0 2.88786,-0.77981 1.48295,-0.85778 2.26346,-1.79357 z m 2.3415,29.39891 q -0.39026,-0.77981 -0.62441,-2.33943 -3.82447,3.35318 -9.20992,3.35318 -3.82447,0 -6.86843,-1.40366 -3.04394,-1.48165 -5.22936,-4.05502 -2.10736,-2.65137 -3.27811,-6.39446 -1.17075,-3.74309 -1.17075,-8.42197 0,-4.67887 1.24881,-8.49995 1.2488,-3.89906 3.51226,-6.70637 2.26345,-2.80733 5.38545,-4.28898 3.12202,-1.55963 6.94647,-1.55963 4.29277,0 7.10258,2.26146 -0.1561,-0.62385 -0.23416,-2.33942 -0.078,-1.793575 -0.078,-3.587145 v -13.72469 l 10.38067,1.6376 v 41.486005 q 0,3.6651 0.078,6.23849 0.15611,2.4954 0.39027,4.21098 0.23414,1.63761 0.46829,2.65136 0.31219,0.93578 0.54634,1.48165 z m -42.89886,-24.79802 q 0,-2.26145 -0.31219,-3.58714 -0.23415,-1.32567 -0.9366,-2.41741 -1.56101,-2.33943 -4.60497,-2.33943 -2.9659,0 -4.60496,2.26145 -1.63905,2.18347 -1.63905,6.39446 v 0.15595 h 12.09777 z m -12.25388,8.11004 v 0.31192 q 0,4.67888 2.18539,7.17428 2.18542,2.49539 6.24403,2.49539 5.30741,0 10.14652,-3.97704 l 4.05862,6.23849 q -6.79037,5.53667 -15.06368,5.53667 -4.29277,0 -7.80503,-1.48164 -3.51226,-1.48165 -6.00986,-4.133 -2.41957,-2.72934 -3.74642,-6.55043 -1.32685,-3.82108 -1.32685,-8.49995 0,-5.38069 1.17075,-9.1238 1.17076,-3.74309 3.82446,-6.70638 2.49761,-2.72933 5.54157,-4.05502 3.04396,-1.32568 7.02452,-1.32568 3.51226,0 6.55622,1.09174 3.04396,1.09173 4.99521,3.11925 2.73176,2.80731 3.98056,7.0183 1.32686,4.133 1.32686,10.44948 v 2.41742 z M 466.7006,102.9168 q 0,-5.224735 -3.9025,-6.628395 -0.93661,-0.38991 -2.57566,-0.54587 -1.561,-0.23394 -3.59031,-0.23394 h -3.90252 v 14.660465 h 3.66836 q 3.51227,0 5.30742,-0.3899 1.79516,-0.38991 2.88786,-1.40366 2.10735,-1.94954 2.10735,-5.4587 z m 1.79516,38.05483 q -0.7805,-1.32569 -1.40491,-2.33943 -0.54635,-1.01377 -1.17074,-1.94953 -0.54636,-1.01377 -1.17076,-2.10551 -0.54635,-1.09173 -1.32686,-2.49539 -2.0293,-3.66512 -3.43421,-6.08252 -1.32684,-2.41743 -2.3415,-3.89907 -1.01465,-1.48164 -1.79516,-2.18347 -0.70245,-0.77981 -1.4049,-1.09174 -0.85855,-0.3899 -1.71711,-0.46788 v 22.61454 H 442.03673 V 86.774705 h 20.21501 q 3.59031,0 6.47817,1.16971 2.96591,1.09173 5.07326,3.19723 2.10736,2.10549 3.20007,5.06878 1.17075,2.8853 1.17075,6.472445 0,3.04126 -0.93661,5.7706 -0.9366,2.65137 -2.57565,4.67887 -1.63905,2.02752 -3.90251,3.27521 -2.18541,1.16973 -4.68301,1.24771 0.85854,0.62385 1.2488,1.09174 0.4683,0.46788 1.01465,1.16971 0.54635,0.70183 1.40491,2.02751 0.93659,1.32569 1.95125,2.96329 1.01465,1.55962 2.10735,3.43117 1.09271,1.79356 2.18541,3.58713 2.57566,4.21098 5.38547,9.04582 z m -56.82881,-0.15596 q -2.8098,1.09173 -6.24401,1.09173 -3.35617,0 -5.85377,-1.48164 -2.49761,-1.48165 -3.43421,-3.97703 -0.31221,-0.77983 -0.46831,-1.48165 -0.1561,-0.70184 -0.31219,-1.63761 -0.078,-0.93578 -0.1561,-2.33944 0,-1.40366 0,-3.50915 V 97.692065 q 0,-3.97705 -0.1561,-6.6284 -0.078,-2.65136 -0.39026,-5.3807 l 10.69288,-2.41742 q 0.3122,1.6376 0.39026,3.89906 0.1561,2.26145 0.1561,6.47244 v 31.114495 q 0,2.57338 0,4.133 0.078,1.55962 0.078,2.49541 0.078,0.93576 0.23414,1.40366 0.1561,0.46788 0.39026,0.85778 0.6244,1.09173 2.10736,1.09173 0.3122,0 0.54635,0 0.23414,0 0.6244,-0.15596 z m -36.95918,-17.31183 q -5.46351,0 -7.64892,1.2477 -2.10735,1.24771 -2.10735,4.83483 0,2.33944 1.2488,3.82108 1.32685,1.40366 3.35615,1.40366 1.48296,0 2.88786,-0.70183 1.40491,-0.70183 2.57566,-2.02751 l 0.1561,-8.57794 z m 8.89773,19.4953 q -1.79516,-0.77981 -3.35617,-2.02751 -1.48295,-1.2477 -2.26345,-2.80732 -0.6244,0.62385 -1.2488,1.16971 -0.54635,0.54587 -1.17076,0.93578 -3.04395,2.18348 -8.03917,2.18348 -6.71232,0 -10.22458,-3.19724 -3.51226,-3.2752 -3.51226,-9.27975 0,-7.09629 4.76107,-10.3715 4.83911,-3.3532 14.43928,-3.3532 0.62441,0 1.17076,0 0.54635,0 1.17075,0.078 v -1.63761 q 0,-3.35319 -0.9366,-4.60089 -0.85855,-1.32568 -3.74641,-1.32568 -2.49762,0 -5.38547,1.16972 -2.88786,1.16972 -6.16597,3.35319 l -4.44887,-7.48619 q 1.56101,-1.01377 2.96591,-1.71559 1.4049,-0.70183 3.51227,-1.55962 2.9659,-1.2477 5.54156,-1.79357 2.6537,-0.54587 5.38546,-0.54587 5.07327,0 8.35137,1.79357 3.35617,1.79356 4.52692,5.14676 0.23415,0.62384 0.31221,1.2477 0.15609,0.54587 0.23415,1.32567 0.15611,0.77982 0.15611,1.87155 0,1.09174 0,2.72934 l -0.23416,13.41277 q 0,1.63761 0.078,2.8853 0.078,1.16973 0.4683,2.18348 0.39026,1.01376 1.09271,1.94952 0.7805,0.8578 2.10735,1.87156 z m -46.94519,-22.06869 q 0,-2.8853 -0.23414,-5.06878 -0.23415,-2.26144 -0.7805,-3.74309 -1.17076,-3.35319 -4.99522,-3.35319 -4.05861,0 -6.94647,3.04127 v 19.41732 q 1.09271,0.85779 2.65371,1.6376 1.561,0.70184 3.12201,0.70184 3.9025,0 5.54156,-2.88531 1.63905,-2.88529 1.63905,-9.74766 z m 11.39534,-1.01375 q 0,3.19723 -0.3122,5.69263 -0.23415,2.4954 -0.93661,4.60089 -0.62439,2.02751 -1.7171,3.7431 -1.01466,1.71558 -2.57566,3.35319 -2.0293,2.18347 -4.76106,3.35319 -2.65371,1.16971 -5.93182,1.16971 -2.3415,0 -4.52691,-0.54586 -2.10736,-0.54587 -3.82446,-1.55962 0.1561,0.70183 0.1561,1.55962 0,0.8578 0,1.71559 v 12.47699 l -10.06847,2.65135 v -46.16485 q 0,-1.94953 -0.078,-3.27521 0,-1.40366 -0.078,-2.41742 0,-1.09174 -0.1561,-2.10549 -0.078,-1.01376 -0.3122,-2.26146 l 9.28798,-1.6376 q 0.3122,1.09172 0.4683,1.94952 0.15609,0.85779 0.23415,1.79357 1.32686,-1.6376 4.05861,-2.65137 2.73176,-1.09172 5.77572,-1.09172 2.10735,0 4.13666,0.70184 2.10735,0.62384 3.74641,1.71558 1.63905,1.09173 2.96591,2.65135 1.32685,1.48165 2.3415,3.58714 1.01466,2.10548 1.56101,4.83483 0.54635,2.72934 0.54635,6.16051 z m -53.23844,-3.74309 q 0,-2.26145 -0.3122,-3.58714 -0.23415,-1.32567 -0.93661,-2.41741 -1.56101,-2.33943 -4.60496,-2.33943 -2.9659,0 -4.60496,2.26145 -1.63905,2.18347 -1.63905,6.39446 v 0.15595 h 12.09778 z m -12.25389,8.11004 v 0.31192 q 0,4.67888 2.1854,7.17428 2.18541,2.49539 6.24403,2.49539 5.30741,0 10.14652,-3.97704 l 4.05862,6.23849 q -6.79037,5.53667 -15.06369,5.53667 -4.29277,0 -7.80503,-1.48164 -3.51226,-1.48165 -6.00986,-4.133 -2.41956,-2.72934 -3.74642,-6.55043 -1.32685,-3.82108 -1.32685,-8.49995 0,-5.38069 1.17075,-9.1238 1.17076,-3.74309 3.82446,-6.70638 2.49761,-2.72933 5.54157,-4.05502 3.04396,-1.32568 7.02452,-1.32568 3.51226,0 6.55622,1.09174 3.04396,1.09173 4.99521,3.11925 2.73176,2.80731 3.98056,7.0183 1.32686,4.133 1.32686,10.44948 v 2.41742 z m -30.40473,16.68798 -9.28798,-20.743 q -1.17075,-2.57337 -2.3415,-5.14675 -1.09272,-2.65137 -2.10737,-4.9908 -1.01466,-2.41741 -1.79514,-4.36695 -0.70245,-2.02752 -1.0927,-3.27521 0.15609,1.6376 0.23414,3.66512 0.078,1.94952 0.15611,3.97704 0.078,2.02751 0.078,4.05502 0.078,1.94952 0.078,3.66512 l 0.3122,23.16041 H 225.85559 V 86.774705 h 12.09778 l 10.38068,21.678755 q 2.02931,4.36695 3.51226,8.42199 1.561,3.97704 2.41956,6.94033 -0.15611,-1.55963 -0.31221,-3.50916 -0.15609,-2.02751 -0.3122,-4.05503 -0.078,-2.10549 -0.15609,-3.97704 -0.078,-1.94953 -0.078,-3.35318 l -0.23414,-22.146665 h 10.38067 v 54.196925 z" />
</svg>
