<svg xmlns="http://www.w3.org/2000/svg" width="350" height="350" viewBox="0 0 350 350">
  <rect fill="#ffffff" width="350" height="350" />
  <polygon fill="#fd000b" points="150 218, 150 168, 100 168, 100 118, 150 118, 150 68, 200 68, 200 118, 250 118, 250 168, 200 168, 200 218, 150 218" />
  <path fill="#fd000b" d="m 249.99957,266.24296 q 0,3.52236 -1.39689,6.38013 -1.33037,2.85776 -3.85808,4.91801 -2.46119,2.06025 -5.98667,3.19007 -3.52547,1.06335 -7.84918,1.06335 -3.99111,0 -8.11526,-1.06335 -4.12415,-1.12982 -7.64963,-3.12361 l 3.45896,-7.2441 q 3.25941,1.72795 6.18622,2.72484 2.99334,0.9969 6.51882,0.9969 8.11527,0 8.11527,-6.31367 0,-4.31989 -6.0532,-5.98137 l -5.12192,-1.39565 q -3.45896,-0.93044 -5.65407,-2.32609 -2.19511,-1.39566 -3.45897,-3.52237 -1.92904,-3.1236 -1.92904,-7.04473 0,-3.19007 1.19734,-5.78199 1.19734,-2.65839 3.39245,-4.51926 2.19511,-1.92733 5.25497,-2.92423 3.05985,-1.06335 6.71837,-1.06335 4.25718,0 8.3148,1.26274 4.05764,1.19627 7.11748,3.38944 l -4.39022,6.64597 q -3.19288,-1.92733 -5.72059,-2.72485 -2.46119,-0.79752 -5.05541,-0.79752 -2.86029,0 -4.6563,1.52858 -1.79599,1.46211 -1.79599,3.7882 0,1.79441 1.0643,2.85777 1.13081,0.99689 4.05762,1.7944 l 5.58755,1.52858 q 5.7206,1.52857 8.71393,5.05093 2.99334,3.52237 2.99334,8.70623 z m -38.18158,11.03231 q -2.79379,2.25963 -5.85364,3.32298 -2.99333,0.9969 -6.98444,0.9969 -9.51215,0 -15.0997,-6.38014 -5.58756,-6.24721 -5.58756,-16.54846 0,-8.50684 3.12637,-14.3553 2.72726,-5.05093 7.38356,-7.84224 4.65629,-2.85776 10.31037,-2.85776 3.45897,0 6.58533,0.9969 3.19288,0.99689 5.12194,2.65838 l -4.19068,6.31367 q -3.52548,-2.59193 -7.38355,-2.59193 -2.32815,0 -4.45674,1.06335 -2.1286,1.06336 -3.39245,2.92423 -2.59422,3.85466 -2.59422,11.89629 0,4.7851 0.39911,7.64286 0.46563,2.79131 1.52993,4.71865 2.86029,5.18384 8.91348,5.18384 2.06207,0 3.9246,-0.66459 1.92903,-0.6646 3.9911,-2.32608 z M 162.46127,248.3653 q 0,-4.4528 -3.32592,-5.64907 -0.79822,-0.3323 -2.19511,-0.46522 -1.33037,-0.19939 -3.05986,-0.19939 h -3.32592 v 12.49443 h 3.12637 q 2.99333,0 4.52326,-0.3323 1.52992,-0.3323 2.46118,-1.19627 1.796,-1.66149 1.796,-4.65218 z m 1.52993,32.43233 q -0.66519,-1.12982 -1.19733,-1.99379 -0.46563,-0.86398 -0.99778,-1.66149 -0.46563,-0.86398 -0.99778,-1.79442 -0.46563,-0.93044 -1.13081,-2.12671 -1.72949,-3.12361 -2.92682,-5.18385 -1.13081,-2.06025 -1.99555,-3.32298 -0.86475,-1.26275 -1.52993,-1.86088 -0.59867,-0.6646 -1.19733,-0.93044 -0.73171,-0.33229 -1.46341,-0.39875 v 19.27331 h -9.11304 v -46.18948 h 17.2283 q 3.05985,0 5.52104,0.99689 2.5277,0.93043 4.3237,2.72484 1.796,1.79442 2.72726,4.31989 0.99777,2.459 0.99777,5.51615 0,2.59193 -0.79822,4.91801 -0.79822,2.25963 -2.19511,3.98759 -1.39689,1.72795 -3.32592,2.7913 -1.86252,0.9969 -3.99112,1.06336 0.73171,0.53168 1.0643,0.93044 0.39911,0.39875 0.86474,0.99689 0.46563,0.59813 1.19733,1.72795 0.79823,1.12981 1.66297,2.52547 0.86474,1.3292 1.796,2.92422 0.93126,1.52858 1.86252,3.05715 2.19511,3.58882 4.58977,7.70933 z m -41.57402,0 -7.9157,-17.67828 q -0.99778,-2.19317 -1.99556,-4.38634 -0.93126,-2.25963 -1.796,-4.25342 -0.86474,-2.06025 -1.52992,-3.72174 -0.59867,-1.72795 -0.93126,-2.79131 0.13303,1.39566 0.19955,3.1236 0.0665,1.6615 0.13304,3.38945 0.0665,1.72795 0.0665,3.45591 0.0665,1.66149 0.0665,3.1236 l 0.26607,19.73853 h -8.98 v -46.18948 h 10.31038 l 8.84696,18.47578 q 1.72948,3.72175 2.99333,7.17766 1.33037,3.38944 2.06208,5.91491 -0.13304,-1.3292 -0.26608,-2.99069 -0.13304,-1.72795 -0.26607,-3.45591 -0.0665,-1.7944 -0.13304,-3.38944 -0.0665,-1.66149 -0.0665,-2.85776 l -0.19955,-18.87455 h 8.84695 v 46.18948 z" />
</svg>
